# xmcd
#
# Track frame offsets:
#	150
#	14202
#	31765
#	49108
#	64780
#	82573
#	101825
#	122465
#	137638
#	152417
#	172035
#	185763
#	201443
#	219057
#	238843
#
# Disc length: 3391 seconds
# Revision: 2
# Processed by: cddbd v1.5.2PL0 Copyright (c) Steve Scherf et al.
# Submitted via: dBpowerAMP V12.0
#
DISCID=c80d3d0f
DTITLE=Reba McEntire - I'm A Survivor ~ The Collection [dBP-LITE-FLAC+1]
DYEAR=2001
DGENRE=Country
TTITLE0=I'm a Survivor
TTITLE1=Forever Love
TTITLE2=The Heart Is a Lonely Hunter
TTITLE3=And Still
TTITLE4=If You See Him, If You See Her - feat. Brooks and Dunn
TTITLE5=The Night the Lights Went Out in Georgia
TTITLE6=Fallin' out of Love
TTITLE7=The Heart Won't Lie - feat. Vince Gill
TTITLE8=Take It Back
TTITLE9=She Thinks His Name Was John
TTITLE10=The Fear of Being Alone
TTITLE11=Why Haven't I Heard from You
TTITLE12=One Honest Heart
TTITLE13=Myself Without You
TTITLE14=Sweet Music Man
EXTD=
EXTT0=
EXTT1=
EXTT2=
EXTT3=
EXTT4=
EXTT5=
EXTT6=
EXTT7=
EXTT8=
EXTT9=
EXTT10=
EXTT11=
EXTT12=
EXTT13=
EXTT14=
PLAYORDER=
